<svg id="cart" xmlns="http://www.w3.org/2000/svg" width="25" height="25" viewBox="-3 -5 30 30"><g id="Group_103" data-name="Group 103"><path class="bottom-nav-icons" id="Path_2479" data-name="Path 2479" d="M18.454,14.069a2.431,2.431,0,0,0,2.1-1.13l4.294-7.121A1.1,1.1,0,0,0,23.8,4.194H6.05L4.923,2H1V4.194H3.4l4.318,8.328L6.1,15.2a2.207,2.207,0,0,0,2.1,3.259H22.592V16.264H8.2l1.32-2.194ZM7.19,6.389H21.764l-3.311,5.486H10.033Z" transform="translate(-1 -2)" fill="#231F2080"></path><path class="bottom-nav-icons" id="Path_2480" data-name="Path 2480" d="M8.012,18a3.017,3.017,0,1,0,3.017,3.017A3.013,3.013,0,0,0,8.012,18Z" transform="translate(-0.508 -0.034)" fill="#231F2080"></path><path class="bottom-nav-icons" id="Path_2481" data-name="Path 2481" d="M18.012,18a3.017,3.017,0,1,0,3.017,3.017A3.013,3.013,0,0,0,18.012,18Z" transform="translate(-0.056 -0.034)" fill="#231F2080"></path></g></svg>