<svg id="fast_returns" data-name="fast returns" xmlns="http://www.w3.org/2000/svg" width="64" height="64" viewBox="0 0 64 64">
  <path id="Path_3860" data-name="Path 3860" d="M77.333,39.466H33.481V37.582A1.6,1.6,0,0,0,31.858,36a1.642,1.642,0,0,0-1.233.553l-5.854,6.657a3.063,3.063,0,0,0,0,4.065l5.854,6.657a1.642,1.642,0,0,0,1.233.553A1.6,1.6,0,0,0,33.481,52.9V51.018H74.963a1.171,1.171,0,0,1,1.185,1.155V71.812a1.171,1.171,0,0,1-1.185,1.155H67.852a2.341,2.341,0,0,0-2.37,2.31v6.931a2.341,2.341,0,0,0,2.37,2.31h9.481A10.534,10.534,0,0,0,88,74.122V49.863A10.534,10.534,0,0,0,77.333,39.466Z" transform="translate(-24 -36)" fill="#1eaf82"/>
  <g id="Group_1277" data-name="Group 1277" transform="translate(0.941 22.588)">
    <g id="Group_1275" data-name="Group 1275" transform="translate(0 0)">
      <circle id="Ellipse_414" data-name="Ellipse 414" cx="20.5" cy="20.5" r="20.5" transform="translate(0.059 0.412)" fill="#fec858"/>
    </g>
    <g id="Group_1276" data-name="Group 1276" transform="translate(5.647 4.707)">
      <circle id="Ellipse_415" data-name="Ellipse 415" cx="16" cy="16" r="16" transform="translate(0.41 -0.295)" fill="#f6b545"/>
    </g>
    <g id="Group_1278" data-name="Group 1278" transform="translate(15.059 8.471)">
      <text id="_" data-name="₹" transform="translate(0 16.941)" fill="#ffcb5b" font-size="18" font-family="Montserrat-Bold, Montserrat" font-weight="700" letter-spacing="0.05em"><tspan x="0" y="0">₹</tspan></text>
    </g>
  </g>
</svg>
