<svg id="instant_checkout" data-name="instant checkout" xmlns="http://www.w3.org/2000/svg" width="76" height="64" viewBox="0 0 76 64">
  <path id="Path_3850" data-name="Path 3850" d="M50.566,117.861l23.692-3.042a19.408,19.408,0,0,0,12.014-6.266,18.728,18.728,0,0,0,4.773-12.5V93.736a2.206,2.206,0,0,0-1.912-2.17L37.4,84.159,31.559,80a2.263,2.263,0,0,0-3.12.49,2.166,2.166,0,0,0,.5,3.062l5.77,4.108,11.531,27.854a6.321,6.321,0,0,0-.978,1.467,5.987,5.987,0,0,0,.361,5.936,6.329,6.329,0,0,0,5.44,2.942H86.076a2.193,2.193,0,1,0,0-4.385H51.062a1.875,1.875,0,0,1-1.655-.888,1.683,1.683,0,0,1-.105-1.732A1.722,1.722,0,0,1,50.566,117.861Zm36.009-22.23v.421A14.43,14.43,0,0,1,75.63,110.093L74.035,101.1a2.148,2.148,0,0,0-.08-.451l-1.241-7ZM71.217,110.788l-9.388,1.205L59.2,103.1l10.7.292ZM68.061,92.981l1.064,6L57.9,98.676l-2.2-7.466ZM40.076,88.973l10.759,1.541,2.372,8.034-9.273-.253Zm14.437,14,2.834,9.6-7.02.9-.107.008-4.449-10.746Z" transform="translate(-23.919 -73.348)" fill="#1eaf82"/>
  <path id="Path_3852" data-name="Path 3852" d="M297.609,141.037l-24.089-3.515v4.431l3.411.5,1.044,6-4.455-.124v4.387l5.222.145,1.287,7.4-6.509.852v4.422l9.492-1.242a18.852,18.852,0,0,0,16.472-18.767v-2.316A2.193,2.193,0,0,0,297.609,141.037Zm-2.509,4.486a14.382,14.382,0,0,1-10.74,14.041l-1.565-8.995a2.182,2.182,0,0,0-.078-.451l-1.218-7,13.6,1.985v.421Z" transform="translate(-232.72 -122.932)" fill="#007d56"/>
  <path id="Path_3853" data-name="Path 3853" d="M303.4,67.824a15.446,15.446,0,1,1,15.446-15.446A15.464,15.464,0,0,1,303.4,67.824Z" transform="translate(-244.686 -36.932)" fill="#fec858"/>
  <path id="Path_3855" data-name="Path 3855" d="M357.216,64.928a2.117,2.117,0,0,1-1.5-.62l-4.234-4.234a2.117,2.117,0,1,1,2.994-2.994l2.737,2.737,13.569-13.569a2.117,2.117,0,0,1,2.994,2.994L358.713,64.308A2.116,2.116,0,0,1,357.216,64.928Z" transform="translate(-298.398 -44.358)" fill="#117e5c"/>
  <circle id="Ellipse_409" data-name="Ellipse 409" cx="4.806" cy="4.806" r="4.806" transform="translate(25.409 54.388)" fill="#007d56"/>
  <circle id="Ellipse_410" data-name="Ellipse 410" cx="4.806" cy="4.806" r="4.806" transform="translate(51.888 54.388)" fill="#007d56"/>
  <circle id="Ellipse_411" data-name="Ellipse 411" cx="4.358" cy="4.358" r="4.358" transform="translate(0 2.491)" fill="#007d56"/>
  <circle id="Ellipse_412" data-name="Ellipse 412" cx="1.718" cy="1.718" r="1.718" transform="translate(28.509 57.476)" fill="#22c291"/>
  <circle id="Ellipse_413" data-name="Ellipse 413" cx="1.718" cy="1.718" r="1.718" transform="translate(54.947 57.476)" fill="#1eaf82"/>
</svg>
