<svg xmlns="http://www.w3.org/2000/svg" xmlns:xlink="http://www.w3.org/1999/xlink" width="176" height="156" viewBox="0 0 176 156">
  <defs>
    <clipPath id="clip-path">
      <path id="Path_3670" data-name="Path 3670" d="M263.713,194.343,307.64,204.1l11.39-26.829-53.69-12.96Z" transform="translate(-263.713 -164.313)" fill="none"/>
    </clipPath>
  </defs>
  <g id="header_img" data-name="header img" transform="translate(-199.344 -157.134)">
    <path id="Path_3655" data-name="Path 3655" d="M375.344,198.553S132.708,144.285,217.214,326.07H375.344Z" transform="translate(0 -12.936)" fill="rgba(30,175,130,0.15)"/>
    <g id="Group_1187" data-name="Group 1187" transform="translate(232.529 161.568)">
      <g id="Group_1176" data-name="Group 1176" transform="translate(0 19.704)">
        <path id="Path_3656" data-name="Path 3656" d="M366.519,217.979l-1.04-.11v49.07l-.96-.172-1.377,5.743s5.678-.154,5.678-4.975V222.1C368.82,219,367.358,218.165,366.519,217.979Z" transform="translate(-292.1 -204.494)" fill="#007d56"/>
        <path id="Path_3657" data-name="Path 3657" d="M319.465,210.332l-56.1-12.283v.007a11.941,11.941,0,0,0-3.316-.471c-6.585,0-11.924,2.7-11.924,9.284a11.923,11.923,0,0,0,15.24,11.453v30.269A4.5,4.5,0,0,0,266.933,253L317.6,264.655a4.5,4.5,0,0,0,5.438-4.406V214.737A4.5,4.5,0,0,0,319.465,210.332Z" transform="translate(-248.124 -196.739)" fill="#0a5840"/>
        <path id="Path_3658" data-name="Path 3658" d="M343.973,231.106l-.287-.085V279.4l-.959-.169-1.378,5.662s5.679-.151,5.679-4.9v-44.8A4.259,4.259,0,0,0,343.973,231.106Z" transform="translate(-283.768 -209.523)" fill="#007d56"/>
        <path id="Path_3659" data-name="Path 3659" d="M306.07,220.441l-54.164-12.009-1.7-6.405a11.948,11.948,0,0,0-2.087,5.6v49.4a4.5,4.5,0,0,0,3.569,4.406L304.2,273.709a4.5,4.5,0,0,0,5.438-4.406V224.848A4.5,4.5,0,0,0,306.07,220.441Z" transform="translate(-248.124 -198.437)" fill="#1eaf82"/>
        <path id="Path_3660" data-name="Path 3660" d="M323.231,209.7l-59.25-13.034a20.3,20.3,0,0,0-6.955-.266,8.361,8.361,0,0,0-6.127,3.4,4.4,4.4,0,0,0-.639,4.425c1.578,3.506,8.231,4.561,9.171,4.694l48.862,10.856s1.945.348,2.035,3.387c0,0,1.337-4.565-1.39-5.387a1.089,1.089,0,0,0-.207-.067l-48.9-10.864c-.025-.006-.051-.01-.076-.014-1.661-.227-6.616-1.354-7.571-3.473-.112-.248-.452-1,.471-2.385a6.3,6.3,0,0,1,4.668-2.487,18.256,18.256,0,0,1,6.227.243l58.639,12.909h0l.054.011a1.7,1.7,0,0,1,1.237,1.112c.23.671.258-.469.252-1.264a1.054,1.054,0,0,0-.5-1.8Z" transform="translate(-248.812 -196.215)" fill="#007d56"/>
      </g>
      <g id="Group_1178" data-name="Group 1178" transform="translate(35.989 57.362)">
        <g id="Group_1177" data-name="Group 1177">
          <path id="Path_3661" data-name="Path 3661" d="M338.647,262.049l-19.326-4.7a6.981,6.981,0,0,0-4.246.4l-.009-.007-.156.078q-.251.114-.492.248l-2.607,1.313.433.536a6.987,6.987,0,0,0-1.484,4.32v.428a7.049,7.049,0,0,0,5.537,6.884l19.378,4.718,1.135,1.409c-.011.009,1.692-.841,2.294-1.141.048-.022.093-.044.139-.069l.072-.036v-.011a2.291,2.291,0,0,0,1.145-1.981V264.3A2.308,2.308,0,0,0,338.647,262.049Z" transform="translate(-308.062 -257.184)" fill="#0a5840"/>
          <path id="Path_3662" data-name="Path 3662" d="M333.286,278.914l-21.359-5.146a7.048,7.048,0,0,1-5.536-6.884v-.428a7.048,7.048,0,0,1,8.56-6.884l19.327,4.7a2.309,2.309,0,0,1,1.813,2.256v10.132A2.309,2.309,0,0,1,333.286,278.914Z" transform="translate(-306.391 -258.033)" fill="#30cb9c"/>
        </g>
        <path id="Path_3663" data-name="Path 3663" d="M319.336,269.532A3.341,3.341,0,1,1,316,266.191,3.341,3.341,0,0,1,319.336,269.532Z" transform="translate(-308.786 -260.628)" fill="#0a5840"/>
      </g>
      <g id="Group_1186" data-name="Group 1186" transform="translate(9.628 0)">
        <g id="Group_1185" data-name="Group 1185" clip-path="url(#clip-path)">
          <g id="Group_1184" data-name="Group 1184" transform="translate(9.089 10.082)">
            <path id="Path_3664" data-name="Path 3664" d="M314.777,196.062a17.853,17.853,0,0,0-6.552-12.447,14.427,14.427,0,0,0-3.73-2.119,13.921,13.921,0,0,0-1.445-.459,12.439,12.439,0,0,0-3.507-.4l-.009,0-.131.011c-.257.009-.513.014-.773.038s-.516.057-.77.1l-3.629.318.073.779c-5.693,2.7-9.371,9.44-8.666,16.925a17.684,17.684,0,0,0,7.316,13,14.2,14.2,0,0,0,1.986,1.144,14.018,14.018,0,0,0,1.415.577q.472.161.957.287l.074.778,6.511-.613.22-.244C310.922,211.791,315.561,204.388,314.777,196.062Z" transform="translate(-281.152 -180.637)" fill="#e49d01"/>
            <g id="Group_1182" data-name="Group 1182" transform="translate(0 0.408)">
              <g id="Group_1181" data-name="Group 1181">
                <path id="Path_3665" data-name="Path 3665" d="M307.654,196.728c.871,9.248-4.948,17.361-12.992,18.118a12.538,12.538,0,0,1-1.341.056,12.942,12.942,0,0,1-4.088-.707,14.006,14.006,0,0,1-1.416-.576,14.193,14.193,0,0,1-1.986-1.144,17.687,17.687,0,0,1-7.316-13c-.87-9.247,4.947-17.361,12.993-18.118a12.95,12.95,0,0,1,4.419.351,13.789,13.789,0,0,1,1.446.459,14.43,14.43,0,0,1,3.73,2.119A17.85,17.85,0,0,1,307.654,196.728Z" transform="translate(-278.428 -181.297)" fill="#ffcc13"/>
                <g id="Group_1179" data-name="Group 1179" transform="translate(4.545 5.21)" opacity="0.31">
                  <path id="Path_3666" data-name="Path 3666" d="M294.81,189.772c-5.542.522-9.564,6.128-8.964,12.5s5.6,11.13,11.14,10.608,9.563-6.13,8.963-12.5S300.353,189.249,294.81,189.772Z" transform="translate(-285.787 -189.733)" fill="#fff"/>
                </g>
                <g id="Group_1180" data-name="Group 1180" transform="translate(3.81 4.376)">
                  <path id="Path_3667" data-name="Path 3667" d="M286.006,201.824c-.644-6.844,3.66-12.847,9.615-13.408.061-.006.12,0,.181-.007a9.467,9.467,0,0,0-1.526.007c-5.954.56-10.259,6.563-9.615,13.408.638,6.775,5.887,11.825,11.768,11.383C291.113,212.854,286.595,208.077,286.006,201.824Z" transform="translate(-284.598 -188.383)" fill="#ce8b05"/>
                  <path id="Path_3668" data-name="Path 3668" d="M307.057,199.811c-.589-6.253-5.107-11.03-10.423-11.384-.06,0-.12,0-.181.007-5.954.56-10.259,6.563-9.614,13.408.589,6.253,5.107,11.029,10.423,11.383.061,0,.12,0,.181-.006C303.4,212.658,307.7,206.655,307.057,199.811Z" transform="translate(-285.43 -188.4)" fill="#e49d01"/>
                </g>
              </g>
            </g>
            <g id="Group_1183" data-name="Group 1183" transform="translate(10.379 7.815)">
              <text id="_" data-name="₹" transform="translate(0 13)" fill="#ffd30f" font-size="13" font-family="Montserrat-Bold, Montserrat" font-weight="700" letter-spacing="0.05em"><tspan x="0" y="0">₹</tspan></text>
            </g>
          </g>
        </g>
      </g>
    </g>
    <g id="Group_1198" data-name="Group 1198" transform="translate(319.496 209.999)">
      <g id="Group_1192" data-name="Group 1192" transform="translate(2.563 5.708)">
        <path id="Path_3671" data-name="Path 3671" d="M383.22,261.8l.022,4.181L398,274.557l29.657-17.123-.022-4.18-14.759-8.577" transform="translate(-383.22 -244.677)" fill="#3cc298"/>
        <g id="Group_1188" data-name="Group 1188" transform="translate(6.483 3.762)">
          <path id="Path_3672" data-name="Path 3672" d="M413.492,250.767a7.446,7.446,0,0,0,6.755,0l4.92,2.859c-1.87,1.08-1.881,2.832-.022,3.913L405.39,268.944a7.448,7.448,0,0,0-6.754,0l-4.92-2.859c1.87-1.081,1.88-2.832.021-3.912Zm.352,11.646c2.447-1.412,2.46-3.7.029-5.116a9.736,9.736,0,0,0-8.833,0c-2.448,1.414-2.459,3.7-.029,5.117a9.735,9.735,0,0,0,8.834,0" transform="translate(-393.716 -250.767)" fill="#4cebba"/>
        </g>
        <g id="Group_1189" data-name="Group 1189">
          <path id="Path_3673" data-name="Path 3673" d="M427.637,253.254l-29.658,17.122L383.22,261.8l29.657-17.122Zm-33.014,13.361a7.449,7.449,0,0,1,6.754,0l19.755-11.405c-1.86-1.081-1.849-2.833.022-3.913l-4.92-2.859a7.446,7.446,0,0,1-6.755,0l-19.755,11.405c1.859,1.08,1.849,2.831-.021,3.912l4.92,2.858" transform="translate(-383.22 -244.677)" fill="#1eaf82"/>
        </g>
        <g id="Group_1190" data-name="Group 1190" transform="translate(12.795 7.12)">
          <path id="Path_3674" data-name="Path 3674" d="M403.935,258.812l14.759,8.577,4.518-2.608L408.453,256.2Z" transform="translate(-403.935 -256.204)" fill="#edf0fa"/>
        </g>
        <g id="Group_1191" data-name="Group 1191" transform="translate(27.567 15.701)">
          <path id="Path_3675" data-name="Path 3675" d="M427.851,272.705l.021,4.181,4.518-2.608-.021-4.181Z" transform="translate(-427.851 -270.097)" fill="#d4d7de"/>
        </g>
        <path id="Path_3676" data-name="Path 3676" d="M397.992,280.975v4.181l-14.738-8.577V272.4Z" transform="translate(-383.233 -255.276)" fill="#007d56"/>
      </g>
      <g id="Group_1197" data-name="Group 1197">
        <path id="Path_3677" data-name="Path 3677" d="M379.071,252.558l.021,4.18,14.759,8.577,29.657-17.122-.021-4.181-14.759-8.577" transform="translate(-379.071 -235.435)" fill="#3cc298"/>
        <g id="Group_1193" data-name="Group 1193" transform="translate(6.483 3.762)">
          <path id="Path_3678" data-name="Path 3678" d="M409.342,241.525a7.444,7.444,0,0,0,6.755,0l4.92,2.859c-1.871,1.08-1.882,2.832-.022,3.912L401.24,259.7a7.444,7.444,0,0,0-6.754,0l-4.92-2.859c1.87-1.081,1.88-2.832.02-3.912Zm.352,11.647c2.446-1.413,2.459-3.7.029-5.117a9.737,9.737,0,0,0-8.834,0c-2.448,1.413-2.46,3.7-.028,5.117a9.734,9.734,0,0,0,8.833,0" transform="translate(-389.567 -241.525)" fill="#4cebba"/>
        </g>
        <g id="Group_1194" data-name="Group 1194">
          <path id="Path_3679" data-name="Path 3679" d="M423.487,244.012,393.83,261.135l-14.759-8.577,29.657-17.123Zm-33.013,13.361a7.444,7.444,0,0,1,6.753,0l19.755-11.405c-1.86-1.081-1.849-2.833.022-3.913l-4.92-2.859a7.444,7.444,0,0,1-6.755,0L385.574,250.6c1.859,1.08,1.849,2.831-.02,3.912l4.92,2.859" transform="translate(-379.071 -235.435)" fill="#1eaf82"/>
        </g>
        <g id="Group_1195" data-name="Group 1195" transform="translate(12.794 7.12)">
          <path id="Path_3680" data-name="Path 3680" d="M399.785,249.571l14.759,8.577,4.518-2.608L404.3,246.962Z" transform="translate(-399.785 -246.962)" fill="#edf0fa"/>
        </g>
        <g id="Group_1196" data-name="Group 1196" transform="translate(27.567 15.701)">
          <path id="Path_3681" data-name="Path 3681" d="M423.7,263.464l.021,4.181,4.518-2.608-.021-4.181Z" transform="translate(-423.702 -260.856)" fill="#d4d7de"/>
        </g>
        <path id="Path_3682" data-name="Path 3682" d="M393.843,271.734v4.181L379.1,267.337v-4.181Z" transform="translate(-379.084 -246.034)" fill="#007d56"/>
      </g>
    </g>
    <g id="Group_1209" data-name="Group 1209" transform="translate(290.716 268.778)">
      <g id="Group_1207" data-name="Group 1207" transform="translate(0 0)">
        <g id="Group_1206" data-name="Group 1206" style="mix-blend-mode: normal;isolation: isolate">
          <g id="Group_1199" data-name="Group 1199" transform="translate(4.165 2.267)">
            <path id="Path_3683" data-name="Path 3683" d="M348.238,331.063a8.189,8.189,0,0,0-3.914,4.288q0-1.837.01-3.674a8.187,8.187,0,0,1,3.914-4.288c5.584-3.245,14.664-3.245,20.284,0,2.808,1.622,4.22,3.747,4.232,5.873q-.006,1.837-.011,3.674c-.012-2.126-1.423-4.251-4.232-5.873C362.9,327.819,353.822,327.819,348.238,331.063Z" transform="translate(-344.324 -324.955)" fill="#f1ce30"/>
          </g>
          <g id="Group_1200" data-name="Group 1200" transform="translate(3.911 8.988)">
            <path id="Path_3684" data-name="Path 3684" d="M344.167,339.512a4.965,4.965,0,0,0-.254,1.546l.011-3.674a4.963,4.963,0,0,1,.254-1.546q0,.919-.006,1.837c0,.145,0,.337,0,.481q0,.351,0,.7c0,.133,0,.311,0,.443A1.607,1.607,0,0,1,344.167,339.512Z" transform="translate(-343.913 -335.837)" fill="#f1ce30"/>
          </g>
          <g id="Group_1201" data-name="Group 1201" transform="translate(3.911 10.534)">
            <path id="Path_3685" data-name="Path 3685" d="M372.608,338.42l-.011,3.674c-.006,2.112-1.395,4.222-4.168,5.834-5.584,3.245-14.664,3.245-20.281,0-2.828-1.632-4.24-3.776-4.234-5.915l.01-3.674c-.006,2.14,1.406,4.283,4.234,5.915,5.618,3.243,14.7,3.243,20.281,0C371.213,342.642,372.6,340.532,372.608,338.42Z" transform="translate(-343.913 -338.34)" fill="#f0c82f"/>
          </g>
          <g id="Group_1202" data-name="Group 1202" transform="translate(32.595 10.573)">
            <path id="Path_3686" data-name="Path 3686" d="M390.353,342.119v-.041q0-1.837.01-3.675v.041C390.36,339.547,390.356,341.017,390.353,342.119Z" transform="translate(-390.353 -338.404)" fill="#f1ce30"/>
          </g>
          <g id="Group_1203" data-name="Group 1203" transform="translate(3.922 2.267)">
            <path id="Path_3687" data-name="Path 3687" d="M368.382,327.389c5.617,3.243,5.647,8.5.064,11.748s-14.664,3.245-20.281,0-5.649-8.5-.066-11.749S362.762,324.144,368.382,327.389Z" transform="translate(-343.93 -324.955)" fill="#e49d01"/>
          </g>
          <path id="Path_3688" data-name="Path 3688" d="M348.1,329.437c5.584-3.245,14.664-3.245,20.284,0,2.369,1.367,3.739,3.094,4.119,4.876.526-2.461-.846-5.035-4.119-6.925-5.62-3.245-14.7-3.245-20.284,0-3.229,1.877-4.576,4.427-4.056,6.872C344.421,332.5,345.77,330.792,348.1,329.437Z" transform="translate(-340.011 -322.689)" fill="#ce8b05"/>
          <g id="Group_1204" data-name="Group 1204" transform="translate(0 10.521)">
            <path id="Path_3689" data-name="Path 3689" d="M374.1,338.423l-.011,3.674c-.007,2.689-1.774,5.374-5.306,7.426-7.1,4.128-18.662,4.128-25.813,0-3.6-2.078-5.4-4.807-5.39-7.53l.011-3.674c-.007,2.723,1.79,5.451,5.39,7.53,7.151,4.128,18.709,4.128,25.813,0C372.324,343.8,374.092,341.111,374.1,338.423Z" transform="translate(-337.581 -338.319)" fill="#e49d01"/>
          </g>
          <g id="Group_1205" data-name="Group 1205" transform="translate(0.01)">
            <path id="Path_3690" data-name="Path 3690" d="M368.719,324.383c7.151,4.128,7.188,10.823.082,14.953s-18.662,4.129-25.813,0-7.191-10.825-.086-14.953S361.565,320.253,368.719,324.383Zm-22.976,13.352c5.618,3.243,14.7,3.243,20.281,0s5.553-8.5-.064-11.748-14.7-3.245-20.284,0-5.553,8.5.066,11.749" transform="translate(-337.598 -321.286)" fill="#ffcc13"/>
          </g>
        </g>
      </g>
      <g id="Group_1208" data-name="Group 1208" transform="translate(13.614 2.784)">
        <text id="_2" data-name="₹" transform="translate(0.244 7.94) rotate(7)" fill="#ffd30f" font-size="8" font-family="Montserrat-Bold, Montserrat" font-weight="700" letter-spacing="0.05em"><tspan x="0" y="0">₹</tspan></text>
      </g>
    </g>
    <g id="Group_1254" data-name="Group 1254" transform="translate(208.108 240.016)">
      <g id="Group_1220" data-name="Group 1220" transform="translate(1.905 15.479)">
        <g id="Group_1218" data-name="Group 1218">
          <g id="Group_1217" data-name="Group 1217" style="mix-blend-mode: normal;isolation: isolate">
            <g id="Group_1210" data-name="Group 1210" transform="translate(3.921 2.134)">
              <path id="Path_3692" data-name="Path 3692" d="M226.653,313.843a7.708,7.708,0,0,0-3.686,4.036q0-1.73.01-3.459a7.705,7.705,0,0,1,3.686-4.036c5.256-3.055,13.805-3.055,19.1,0,2.645,1.526,3.974,3.528,3.984,5.529l-.01,3.46c-.01-2-1.34-4-3.984-5.529C240.458,310.788,231.909,310.788,226.653,313.843Z" transform="translate(-222.967 -308.093)" fill="#f1ce30"/>
            </g>
            <g id="Group_1211" data-name="Group 1211" transform="translate(3.682 8.461)">
              <path id="Path_3693" data-name="Path 3693" d="M222.819,321.8a4.714,4.714,0,0,0-.239,1.455l.01-3.459a4.678,4.678,0,0,1,.239-1.456q0,.865,0,1.73v.453l0,.661c0,.125,0,.292,0,.418A1.326,1.326,0,0,1,222.819,321.8Z" transform="translate(-222.58 -318.337)" fill="#f1ce30"/>
            </g>
            <g id="Group_1212" data-name="Group 1212" transform="translate(3.682 9.917)">
              <path id="Path_3694" data-name="Path 3694" d="M249.6,320.769l-.01,3.46c-.006,1.989-1.312,3.975-3.925,5.493-5.256,3.055-13.805,3.055-19.094,0-2.663-1.537-3.993-3.555-3.987-5.569l.01-3.46c-.006,2.014,1.324,4.032,3.986,5.57,5.289,3.053,13.838,3.053,19.094,0C248.283,324.744,249.59,322.758,249.6,320.769Z" transform="translate(-222.58 -320.694)" fill="#f0c82f"/>
            </g>
            <g id="Group_1213" data-name="Group 1213" transform="translate(30.687 9.954)">
              <path id="Path_3695" data-name="Path 3695" d="M266.3,324.252v-.038l.01-3.46v.038C266.309,321.83,266.305,323.214,266.3,324.252Z" transform="translate(-266.302 -320.754)" fill="#f1ce30"/>
            </g>
            <g id="Group_1214" data-name="Group 1214" transform="translate(3.692 2.134)">
              <path id="Path_3696" data-name="Path 3696" d="M245.617,310.384c5.289,3.053,5.317,8,.06,11.06s-13.805,3.055-19.094,0-5.319-8.007-.062-11.062S240.326,307.329,245.617,310.384Z" transform="translate(-222.596 -308.093)" fill="#a8cafc"/>
            </g>
            <path id="Path_3697" data-name="Path 3697" d="M226.523,312.313c5.256-3.055,13.805-3.055,19.1,0,2.23,1.287,3.521,2.912,3.878,4.59.5-2.317-.8-4.741-3.878-6.519-5.291-3.055-13.84-3.055-19.1,0-3.04,1.767-4.309,4.167-3.818,6.469A7.314,7.314,0,0,1,226.523,312.313Z" transform="translate(-218.907 -305.959)" fill="#3e61c1"/>
            <g id="Group_1215" data-name="Group 1215" transform="translate(0 9.905)">
              <path id="Path_3698" data-name="Path 3698" d="M251,320.772l-.01,3.46c-.007,2.532-1.671,5.059-4.995,6.991-6.689,3.887-17.57,3.887-24.3,0-3.389-1.957-5.081-4.525-5.075-7.09l.01-3.459c-.007,2.564,1.686,5.132,5.075,7.089,6.732,3.887,17.613,3.887,24.3,0C249.329,325.831,250.993,323.3,251,320.772Z" transform="translate(-216.619 -320.674)" fill="#e49d01"/>
            </g>
            <g id="Group_1216" data-name="Group 1216" transform="translate(0.01)">
              <path id="Path_3699" data-name="Path 3699" d="M245.934,307.554c6.732,3.886,6.768,10.19.077,14.078s-17.57,3.887-24.3,0-6.77-10.191-.082-14.078S239.2,303.666,245.934,307.554ZM224.3,320.124c5.289,3.053,13.838,3.053,19.094,0s5.229-8.007-.06-11.06-13.84-3.055-19.1,0-5.229,8.007.062,11.062" transform="translate(-216.635 -304.638)" fill="#ffcc13"/>
            </g>
          </g>
        </g>
        <g id="Group_1219" data-name="Group 1219" transform="translate(12.548 5.38)">
          <path id="Path_3700" data-name="Path 3700" d="M242.47,321.792l-.149,1.095-1.992-.272.143-1.045a11.276,11.276,0,0,1-3.537-1.185l1.3-1.549a9.213,9.213,0,0,0,3.177,1.075c.947.129,1.3.037,1.337-.2.118-.867-5.445-.912-5.094-3.485.151-1.114,1.437-1.893,3.785-1.8l.146-1.074,1.992.271-.143,1.055a10,10,0,0,1,2.789.962L245,317.186a8.334,8.334,0,0,0-2.685-.888c-.975-.133-1.312.022-1.344.258-.113.828,5.448.883,5.1,3.427C245.924,321.047,244.7,321.824,242.47,321.792Z" transform="translate(-236.935 -313.348)" fill="#3e61c1"/>
        </g>
      </g>
      <g id="Group_1231" data-name="Group 1231" transform="translate(3.009 10.962)">
        <g id="Group_1229" data-name="Group 1229">
          <g id="Group_1228" data-name="Group 1228" style="mix-blend-mode: normal;isolation: isolate">
            <g id="Group_1221" data-name="Group 1221" transform="translate(3.921 2.134)">
              <path id="Path_3701" data-name="Path 3701" d="M228.44,306.53a7.706,7.706,0,0,0-3.686,4.036q0-1.73.01-3.46a7.706,7.706,0,0,1,3.686-4.036c5.256-3.055,13.805-3.055,19.1,0,2.645,1.526,3.973,3.528,3.985,5.529l-.01,3.459c-.01-2-1.34-4-3.984-5.53C242.245,303.475,233.7,303.475,228.44,306.53Z" transform="translate(-224.754 -300.78)" fill="#f1ce30"/>
            </g>
            <g id="Group_1222" data-name="Group 1222" transform="translate(3.682 8.461)">
              <path id="Path_3702" data-name="Path 3702" d="M224.606,314.484a4.7,4.7,0,0,0-.239,1.455l.01-3.459a4.68,4.68,0,0,1,.239-1.456q0,.865,0,1.73v.453l0,.661c0,.125,0,.292,0,.418A1.414,1.414,0,0,1,224.606,314.484Z" transform="translate(-224.367 -311.024)" fill="#f1ce30"/>
            </g>
            <g id="Group_1223" data-name="Group 1223" transform="translate(3.682 9.917)">
              <path id="Path_3703" data-name="Path 3703" d="M251.382,313.456l-.01,3.46c-.006,1.989-1.313,3.975-3.925,5.493-5.256,3.055-13.805,3.055-19.094,0-2.663-1.537-3.993-3.555-3.987-5.569l.01-3.459c-.006,2.014,1.324,4.032,3.986,5.569,5.289,3.053,13.838,3.053,19.094,0C250.07,317.431,251.377,315.445,251.382,313.456Z" transform="translate(-224.367 -313.381)" fill="#f0c82f"/>
            </g>
            <g id="Group_1224" data-name="Group 1224" transform="translate(30.687 9.954)">
              <path id="Path_3704" data-name="Path 3704" d="M268.089,316.939V316.9l.01-3.46v.038C268.1,314.517,268.092,315.9,268.089,316.939Z" transform="translate(-268.089 -313.441)" fill="#f1ce30"/>
            </g>
            <g id="Group_1225" data-name="Group 1225" transform="translate(3.692 2.134)">
              <path id="Path_3705" data-name="Path 3705" d="M247.4,303.071c5.289,3.053,5.317,8,.06,11.06s-13.805,3.055-19.094,0-5.319-8.007-.062-11.062S242.113,300.016,247.4,303.071Z" transform="translate(-224.383 -300.78)" fill="#e49d01"/>
            </g>
            <path id="Path_3706" data-name="Path 3706" d="M228.31,305c5.256-3.055,13.805-3.055,19.1,0,2.23,1.287,3.521,2.912,3.878,4.59.5-2.317-.8-4.741-3.878-6.519-5.291-3.055-13.84-3.055-19.1,0-3.04,1.767-4.309,4.167-3.818,6.469A7.314,7.314,0,0,1,228.31,305Z" transform="translate(-220.694 -298.646)" fill="#ce8b05"/>
            <g id="Group_1226" data-name="Group 1226" transform="translate(0 9.905)">
              <path id="Path_3707" data-name="Path 3707" d="M252.787,313.459l-.01,3.459c-.007,2.532-1.671,5.059-4.995,6.991-6.689,3.886-17.57,3.886-24.3,0-3.389-1.957-5.082-4.525-5.075-7.089l.01-3.459c-.007,2.564,1.686,5.132,5.075,7.089,6.732,3.887,17.613,3.887,24.3,0C251.116,318.518,252.78,315.99,252.787,313.459Z" transform="translate(-218.406 -313.361)" fill="#e49d01"/>
            </g>
            <g id="Group_1227" data-name="Group 1227" transform="translate(0.01)">
              <path id="Path_3708" data-name="Path 3708" d="M247.721,300.241c6.732,3.886,6.768,10.189.077,14.078s-17.569,3.887-24.3,0-6.77-10.191-.082-14.078S240.987,296.353,247.721,300.241ZM226.09,312.811c5.289,3.053,13.838,3.053,19.094,0s5.229-8.007-.06-11.06-13.84-3.055-19.1,0-5.229,8.007.062,11.062" transform="translate(-218.422 -297.325)" fill="#ffcc13"/>
            </g>
          </g>
        </g>
        <g id="Group_1230" data-name="Group 1230" transform="translate(12.548 5.379)">
          <path id="Path_3709" data-name="Path 3709" d="M244.257,314.479l-.149,1.094-1.992-.271.143-1.045a11.276,11.276,0,0,1-3.537-1.185l1.3-1.549A9.209,9.209,0,0,0,243.2,312.6c.947.129,1.3.037,1.337-.2.119-.868-5.444-.912-5.094-3.485.152-1.114,1.438-1.893,3.786-1.8l.146-1.075,1.992.272-.144,1.055a10,10,0,0,1,2.79.962l-1.233,1.549a8.356,8.356,0,0,0-2.685-.888c-.975-.132-1.312.022-1.344.259-.113.828,5.448.883,5.1,3.426C247.711,313.734,246.483,314.511,244.257,314.479Z" transform="translate(-238.722 -306.034)" fill="#3e61c1"/>
        </g>
      </g>
      <g id="Group_1242" data-name="Group 1242" transform="translate(0 5.253)">
        <g id="Group_1240" data-name="Group 1240">
          <g id="Group_1239" data-name="Group 1239" style="mix-blend-mode: normal;isolation: isolate">
            <g id="Group_1232" data-name="Group 1232" transform="translate(3.92 2.134)">
              <path id="Path_3710" data-name="Path 3710" d="M223.567,297.286a7.713,7.713,0,0,0-3.686,4.036l.01-3.459a7.709,7.709,0,0,1,3.686-4.037c5.257-3.055,13.806-3.055,19.1,0,2.644,1.527,3.973,3.528,3.984,5.53l-.009,3.459c-.011-2-1.34-4-3.984-5.529C237.373,294.231,228.824,294.231,223.567,297.286Z" transform="translate(-219.881 -291.536)" fill="#f1ce30"/>
            </g>
            <g id="Group_1233" data-name="Group 1233" transform="translate(3.682 8.462)">
              <path id="Path_3711" data-name="Path 3711" d="M219.733,305.24a4.7,4.7,0,0,0-.238,1.456l.01-3.46a4.69,4.69,0,0,1,.238-1.455q0,.864,0,1.729c0,.136,0,.317,0,.453l0,.662c0,.125,0,.292,0,.417A1.327,1.327,0,0,1,219.733,305.24Z" transform="translate(-219.495 -301.781)" fill="#f1ce30"/>
            </g>
            <g id="Group_1234" data-name="Group 1234" transform="translate(3.682 9.917)">
              <path id="Path_3712" data-name="Path 3712" d="M246.51,304.212l-.01,3.459c-.006,1.989-1.313,3.975-3.925,5.493-5.257,3.055-13.806,3.055-19.094,0-2.663-1.537-3.993-3.555-3.986-5.569l.01-3.46c-.006,2.015,1.324,4.032,3.986,5.569,5.288,3.053,13.837,3.053,19.094,0C245.2,308.187,246.5,306.2,246.51,304.212Z" transform="translate(-219.495 -304.137)" fill="#f0c82f"/>
            </g>
            <g id="Group_1235" data-name="Group 1235" transform="translate(30.687 9.955)">
              <path id="Path_3713" data-name="Path 3713" d="M263.217,307.7v-.038l.009-3.459v.038C263.224,305.274,263.22,306.658,263.217,307.7Z" transform="translate(-263.217 -304.198)" fill="#f1ce30"/>
            </g>
            <g id="Group_1236" data-name="Group 1236" transform="translate(3.692 2.134)">
              <path id="Path_3714" data-name="Path 3714" d="M242.532,293.827c5.288,3.053,5.316,8.005.06,11.06s-13.806,3.055-19.094,0-5.319-8.007-.062-11.062S237.241,290.772,242.532,293.827Z" transform="translate(-219.511 -291.536)" fill="#a8cafc"/>
            </g>
            <path id="Path_3715" data-name="Path 3715" d="M223.437,295.756c5.257-3.055,13.806-3.055,19.1,0,2.23,1.287,3.521,2.913,3.878,4.59.495-2.317-.8-4.741-3.878-6.519-5.291-3.055-13.84-3.055-19.1,0-3.04,1.767-4.309,4.167-3.818,6.469A7.316,7.316,0,0,1,223.437,295.756Z" transform="translate(-215.821 -289.402)" fill="#3e61c1"/>
            <g id="Group_1237" data-name="Group 1237" transform="translate(0 9.905)">
              <path id="Path_3716" data-name="Path 3716" d="M247.915,304.215l-.01,3.46c-.007,2.531-1.671,5.059-4.995,6.991-6.688,3.887-17.57,3.887-24.3,0-3.389-1.957-5.081-4.525-5.074-7.089l.01-3.46c-.007,2.564,1.685,5.132,5.074,7.089,6.732,3.886,17.614,3.886,24.3,0C246.244,309.274,247.907,306.746,247.915,304.215Z" transform="translate(-213.534 -304.117)" fill="#e49d01"/>
            </g>
            <g id="Group_1238" data-name="Group 1238" transform="translate(0.01)">
              <path id="Path_3717" data-name="Path 3717" d="M242.849,291c6.732,3.887,6.767,10.19.077,14.078s-17.57,3.887-24.3,0-6.77-10.191-.082-14.078S236.114,287.109,242.849,291Zm-21.631,12.571c5.288,3.053,13.837,3.053,19.094,0s5.229-8.007-.06-11.06-13.84-3.055-19.1,0-5.228,8.007.062,11.062" transform="translate(-213.549 -288.081)" fill="#ffcc13"/>
            </g>
          </g>
        </g>
        <g id="Group_1241" data-name="Group 1241" transform="translate(12.548 5.38)">
          <path id="Path_3718" data-name="Path 3718" d="M239.385,305.235l-.149,1.094-1.992-.271.142-1.045a11.309,11.309,0,0,1-3.537-1.185l1.305-1.55a9.209,9.209,0,0,0,3.177,1.075c.946.129,1.3.037,1.337-.2.118-.867-5.445-.912-5.094-3.485.152-1.114,1.438-1.893,3.785-1.8l.146-1.075,1.993.271-.144,1.055a10,10,0,0,1,2.789.962l-1.232,1.549a8.346,8.346,0,0,0-2.685-.888c-.975-.133-1.313.022-1.345.259-.113.828,5.448.883,5.1,3.426C242.838,304.491,241.611,305.267,239.385,305.235Z" transform="translate(-233.849 -296.791)" fill="#3e61c1"/>
        </g>
      </g>
      <g id="Group_1253" data-name="Group 1253" transform="translate(0.22)">
        <g id="Group_1251" data-name="Group 1251">
          <g id="Group_1250" data-name="Group 1250" style="mix-blend-mode: normal;isolation: isolate">
            <g id="Group_1243" data-name="Group 1243" transform="translate(3.921 2.134)">
              <path id="Path_3719" data-name="Path 3719" d="M223.924,288.782a7.708,7.708,0,0,0-3.686,4.036q0-1.73.01-3.46a7.706,7.706,0,0,1,3.686-4.036c5.256-3.055,13.805-3.055,19.1,0,2.645,1.526,3.974,3.528,3.985,5.529l-.01,3.46c-.01-2-1.34-4-3.984-5.53C237.729,285.727,229.18,285.727,223.924,288.782Z" transform="translate(-220.238 -283.031)" fill="#f1ce30"/>
            </g>
            <g id="Group_1244" data-name="Group 1244" transform="translate(3.682 8.461)">
              <path id="Path_3720" data-name="Path 3720" d="M220.09,296.736a4.714,4.714,0,0,0-.239,1.455l.01-3.46a4.7,4.7,0,0,1,.239-1.455q0,.865,0,1.73c0,.136,0,.317,0,.453l0,.661c0,.125,0,.292,0,.418A1.329,1.329,0,0,1,220.09,296.736Z" transform="translate(-219.851 -293.276)" fill="#f1ce30"/>
            </g>
            <g id="Group_1245" data-name="Group 1245" transform="translate(3.682 9.917)">
              <path id="Path_3721" data-name="Path 3721" d="M246.866,295.708l-.01,3.46c-.006,1.989-1.313,3.975-3.925,5.493-5.256,3.055-13.805,3.055-19.094,0-2.663-1.537-3.993-3.555-3.987-5.569l.01-3.46c-.006,2.014,1.324,4.032,3.987,5.569,5.288,3.054,13.837,3.054,19.094,0C245.554,299.683,246.861,297.7,246.866,295.708Z" transform="translate(-219.851 -295.633)" fill="#f0c82f"/>
            </g>
            <g id="Group_1246" data-name="Group 1246" transform="translate(30.687 9.954)">
              <path id="Path_3722" data-name="Path 3722" d="M263.573,299.191v-.038q.006-1.73.01-3.46v.038C263.58,296.769,263.576,298.153,263.573,299.191Z" transform="translate(-263.573 -295.693)" fill="#f1ce30"/>
            </g>
            <g id="Group_1247" data-name="Group 1247" transform="translate(3.692 2.134)">
              <path id="Path_3723" data-name="Path 3723" d="M242.888,285.323c5.289,3.053,5.317,8,.06,11.06s-13.805,3.055-19.094,0-5.319-8.007-.062-11.061S237.6,282.268,242.888,285.323Z" transform="translate(-219.867 -283.031)" fill="#e49d01"/>
            </g>
            <path id="Path_3724" data-name="Path 3724" d="M223.794,287.252c5.256-3.055,13.805-3.055,19.1,0,2.23,1.287,3.521,2.912,3.878,4.59.5-2.317-.8-4.741-3.878-6.519-5.291-3.055-13.84-3.055-19.1,0-3.04,1.766-4.309,4.167-3.818,6.469A7.314,7.314,0,0,1,223.794,287.252Z" transform="translate(-216.178 -280.898)" fill="#ce8b05"/>
            <g id="Group_1248" data-name="Group 1248" transform="translate(0 9.905)">
              <path id="Path_3725" data-name="Path 3725" d="M248.271,295.711l-.01,3.46c-.007,2.532-1.671,5.059-5,6.991-6.689,3.887-17.57,3.887-24.3,0-3.389-1.957-5.081-4.525-5.075-7.09l.01-3.459c-.007,2.564,1.686,5.132,5.075,7.089,6.732,3.887,17.613,3.887,24.3,0C246.6,300.77,248.264,298.242,248.271,295.711Z" transform="translate(-213.89 -295.613)" fill="#e49d01"/>
            </g>
            <g id="Group_1249" data-name="Group 1249" transform="translate(0.01)">
              <path id="Path_3726" data-name="Path 3726" d="M243.205,282.493c6.732,3.886,6.768,10.189.077,14.078s-17.57,3.887-24.3,0-6.77-10.191-.082-14.078S236.471,278.6,243.205,282.493Zm-21.63,12.57c5.288,3.054,13.837,3.054,19.094,0s5.229-8.007-.06-11.06-13.84-3.055-19.1,0-5.229,8.007.062,11.061" transform="translate(-213.906 -279.577)" fill="#ffcc13"/>
            </g>
          </g>
        </g>
        <text id="_3" data-name="₹" transform="translate(13.11 10.63) rotate(3)" fill="#ffd30f" font-size="8" font-family="Montserrat-Bold, Montserrat" font-weight="700" letter-spacing="0.05em"><tspan x="0" y="0">₹</tspan></text>
      </g>
    </g>
    <g id="Group_1255" data-name="Group 1255" transform="translate(212.992 157.134)">
      <path id="Path_3728" data-name="Path 3728" d="M295.342,157.134l.56,1.457a3.394,3.394,0,0,0,1.949,1.949l1.457.56-1.457.56a3.394,3.394,0,0,0-1.949,1.949l-.56,1.457-.56-1.457a3.392,3.392,0,0,0-1.949-1.949l-1.457-.56,1.457-.56a3.392,3.392,0,0,0,1.949-1.949Z" transform="translate(-248.18 -157.134)" fill="#22c291"/>
      <path id="Path_3729" data-name="Path 3729" d="M224.3,182.312l.4,1.05a2.445,2.445,0,0,0,1.4,1.4l1.05.4-1.05.4a2.443,2.443,0,0,0-1.4,1.4l-.4,1.05-.4-1.05a2.443,2.443,0,0,0-1.4-1.4l-1.05-.4,1.05-.4a2.445,2.445,0,0,0,1.4-1.4Z" transform="translate(-221.441 -166.761)" fill="#22c291"/>
      <path id="Path_3730" data-name="Path 3730" d="M357.191,177.957l.376.977a2.275,2.275,0,0,0,1.307,1.306l.977.376-.977.376a2.275,2.275,0,0,0-1.307,1.307l-.376.977-.375-.977a2.274,2.274,0,0,0-1.307-1.307l-.977-.376.977-.376a2.275,2.275,0,0,0,1.307-1.306Z" transform="translate(-272.327 -165.095)" fill="#22c291"/>
      <path id="Path_3731" data-name="Path 3731" d="M226.078,240.322l.305.793a1.845,1.845,0,0,0,1.061,1.061l.793.3-.793.305a1.842,1.842,0,0,0-1.061,1.061l-.305.793-.305-.793a1.842,1.842,0,0,0-1.061-1.061l-.793-.305.793-.3a1.845,1.845,0,0,0,1.061-1.061Z" transform="translate(-222.388 -188.94)" fill="#22c291"/>
      <path id="Path_3732" data-name="Path 3732" d="M389.7,214.537l.305.793a1.845,1.845,0,0,0,1.061,1.061l.793.3-.793.305A1.844,1.844,0,0,0,390,218.061l-.305.793-.3-.793A1.847,1.847,0,0,0,388.333,217l-.793-.305.793-.3a1.848,1.848,0,0,0,1.061-1.061Z" transform="translate(-284.948 -179.082)" fill="#22c291"/>
    </g>
  </g>
</svg>
