<svg id="wishlist" xmlns="http://www.w3.org/2000/svg" width="24" height="24" viewBox="0 0 24 24">
  <path id="Path_4060" data-name="Path 4060" d="M0,0H24V24H0Z" fill="none"/>
  <path id="heart-outline" d="M11.595,18.253l-.1.1-.1-.1C6.883,14.026,3.9,11.23,3.9,8.4A3.3,3.3,0,0,1,7.225,4.962a3.729,3.729,0,0,1,3.392,2.315h1.767a3.729,3.729,0,0,1,3.391-2.315A3.3,3.3,0,0,1,19.1,8.4c0,2.835-2.983,5.631-7.505,9.858M15.775,3A5.641,5.641,0,0,0,11.5,5.04,5.641,5.641,0,0,0,7.225,3,5.254,5.254,0,0,0,2,8.4c0,3.7,3.23,6.729,8.122,11.31L11.5,21l1.378-1.295C17.77,15.124,21,12.093,21,8.4A5.254,5.254,0,0,0,15.775,3Z" transform="translate(1)" fill="#242424"/>
</svg>
